<?xml version="1.0" encoding="UTF-8"?>
<svg id="Camada_1" data-name="Camada 1" xmlns="http://www.w3.org/2000/svg" version="1.1" viewBox="0 0 296 194">
  <defs>
    <style>
      .cls-1 {
        fill: #ff7077;
        stroke-width: 0px;
      }
    </style>
  </defs>
  <g id="surface1">
    <path class="cls-1" d="M115.1,190.9c-29,0-56.6-9.5-77.7-26.7C15.7,146.4,3.1,121.9,3.1,96.8S15.7,47.1,37.5,29.4C58.6,12.1,86.2,2.7,115.1,2.7s69.2,10.4,106.1,26.4c47.8,20.8,72.1,43.6,72.1,67.8s-24.3,47.7-72.1,68.3c-36.6,15.7-78.2,25.8-106,25.8ZM115.1,42.7c-19.8,0-38.4,6.3-52.4,17.7-12.6,10.3-19.6,23.2-19.6,36.4,0,28.8,33.6,54.1,72,54.1s55.8-8.4,86.2-20.9c34.9-14.3,49.5-27.9,51.8-33.1-2.6-5.2-17.6-18.8-52.5-33.2-30.4-12.6-64.7-21.1-85.4-21.1ZM253.4,97.7h0,0Z"/>
  </g>
</svg>